<?xml version="1.0" encoding="UTF-8"?>
<svg width="107px" height="44px" viewBox="0 0 107 44" version="1.1" xmlns="http://www.w3.org/2000/svg" xmlns:xlink="http://www.w3.org/1999/xlink">
    <title>logo_gray</title>
    <defs>
        <path d="M31.69034,28.74764 L23.83124,28.74764 L22.91494,28.74764 L22.26894,29.39534 L22.00034,29.66394 L22.00034,17.60584 L23.56264,16.04354 L24.74584,14.86034 L25.40034,14.86034 L25.40034,20.16944 L27.52534,18.46944 L29.65034,20.16944 L29.65034,14.86034 L31.69034,14.86034 L31.69034,28.74764 Z M12.65034,22.90814 L19.44014,22.90814 L19.44014,20.69814 L12.65034,20.69814 L12.65034,22.90814 Z M12.65034,27.66814 L19.44014,27.66814 L19.44014,25.45814 L12.65034,25.45814 L12.65034,27.66814 Z M12.65034,18.14814 L16.90374,18.14814 L16.90374,15.93814 L12.65034,15.93814 L12.65034,18.14814 Z M23.83124,12.65034 L22.00034,14.48124 L20.16944,12.65034 L10.10034,12.65034 L10.10034,14.21944 L10.10034,30.32354 L10.10034,30.95764 L20.16944,30.95764 L22.00034,32.78854 L23.83124,30.95764 L33.90034,30.95764 L33.90034,12.65034 L23.83124,12.65034 Z" id="path-1"></path>
    </defs>
    <g id="Page-1" stroke="none" stroke-width="1" fill="none" fill-rule="evenodd">
        <g id="choice_category" transform="translate(-24.000000, -1023.000000)">
            <g id="footer" transform="translate(0.000000, 1010.000000)">
                <g id="logo_gray" transform="translate(24.000000, 13.000000)">
                    <g id="Group-7">
                        <rect id="Rectangle" x="0.4" y="0.4" width="43.2" height="43.2"></rect>
                        <mask id="mask-2" fill="white">
                            <use xlink:href="#path-1"></use>
                        </mask>
                        <use id="Mask" fill="#000000" xlink:href="#path-1"></use>
                        <rect id="🎨-icon-color" fill="#B6B8C2" mask="url(#mask-2)" x="8.4" y="8.4" width="27.2" height="27.2"></rect>
                    </g>
                    <path d="M52.152,30.4 L52.152,18.8192 L56.744,18.8192 L56.744,14.72 L42.2736,14.72 L42.2736,18.8192 L46.8656,18.8192 L46.8656,30.4 L52.152,30.4 Z M60.1008,17.1616 C61.0266667,17.1616 61.7658667,16.9114667 62.3184,16.4112 C62.8709333,15.9109333 63.1472,15.2725333 63.1472,14.496 C63.1472,13.7642667 62.8709333,13.1669333 62.3184,12.704 C61.7658667,12.2410667 61.0266667,12.0096 60.1008,12.0096 C59.1898667,12.0096 58.4544,12.2522667 57.8944,12.7376 C57.3344,13.2229333 57.0544,13.8389333 57.0544,14.5856 C57.0544,15.3322667 57.3344,15.9482667 57.8944,16.4336 C58.4544,16.9189333 59.1898667,17.1616 60.1008,17.1616 Z M62.632,30.4 L62.632,18.1472 L57.5696,18.1472 L57.5696,30.4 L62.632,30.4 Z M71.2976,30.624 C72.7909333,30.624 74.0677333,30.3029333 75.128,29.6608 C76.1882667,29.0186667 76.92,28.1301333 77.3232,26.9952 L77.3232,26.9952 L73.4032,25.0688 C72.9253333,26.144 72.216,26.6816 71.2752,26.6816 C70.6778667,26.6816 70.1813333,26.4725333 69.7856,26.0544 C69.3898667,25.6362667 69.192,25.0389333 69.192,24.2624 C69.192,23.5008 69.3898667,22.9109333 69.7856,22.4928 C70.1813333,22.0746667 70.6778667,21.8656 71.2752,21.8656 C72.216,21.8656 72.9253333,22.4032 73.4032,23.4784 L73.4032,23.4784 L77.3232,21.552 C76.92,20.4170667 76.1882667,19.5285333 75.128,18.8864 C74.0677333,18.2442667 72.7909333,17.9232 71.2976,17.9232 C69.9088,17.9232 68.6656,18.192 67.568,18.7296 C66.4704,19.2672 65.6117333,20.0176 64.992,20.9808 C64.3722667,21.944 64.0624,23.0378667 64.0624,24.2624 C64.0624,25.4869333 64.3722667,26.5845333 64.992,27.5552 C65.6117333,28.5258667 66.4704,29.28 67.568,29.8176 C68.6656,30.3552 69.9088,30.624 71.2976,30.624 Z M83.3904,30.4 L83.3904,13.7792 L78.328,13.7792 L78.328,30.4 L83.3904,30.4 Z M88.1584,34.9696 C89.5472,34.9696 90.7194667,34.6485333 91.6752,34.0064 C92.6309333,33.3642667 93.4298667,32.2442667 94.072,30.6464 L94.072,30.6464 L99.112,18.1472 L94.3184,18.1472 L91.7424,24.7104 L89.2112,18.1472 L84.0144,18.1472 L89.1664,30.5568 C88.8826667,30.8853333 88.4645333,31.0496 87.912,31.0496 C87.6133333,31.0496 87.3034667,30.9898667 86.9824,30.8704 C86.6613333,30.7509333 86.3738667,30.5941333 86.12,30.4 L86.12,30.4 L84.44,33.872 C84.8432,34.2005333 85.392,34.4656 86.0864,34.6672 C86.7808,34.8688 87.4714667,34.9696 88.1584,34.9696 Z" id="Ticly" fill="#B6B8C2" fill-rule="nonzero"></path>
                </g>
            </g>
        </g>
    </g>
</svg>