<?xml version="1.0" encoding="UTF-8"?>
<svg width="99px" height="46px" viewBox="0 0 99 46" version="1.1" xmlns="http://www.w3.org/2000/svg" xmlns:xlink="http://www.w3.org/1999/xlink">
    <title>logo</title>
    <g id="Page-1" stroke="none" stroke-width="1" fill="none" fill-rule="evenodd">
        <g id="logo_color">
            <rect id="Rectangle" x="0" y="0" width="99" height="46"></rect>
            <path d="M84.5977412,16.4180538 L81.157275,25.2283204 L77.776643,16.4180538 L70.8358765,16.4180538 L77.7168088,33.0763736 C77.3378589,33.5173881 76.7794065,33.7378954 76.0414514,33.7378954 C75.6425568,33.7378954 75.2287036,33.6577109 74.7998919,33.497342 C74.3710801,33.3369731 73.9871441,33.1264889 73.6480836,32.8658895 L71.4043013,37.5266107 C71.9428091,37.9676252 72.675778,38.3234437 73.603208,38.5940662 C74.530638,38.8646887 75.4530818,39 76.3705395,39 C78.2253995,39 79.7910609,38.5690086 81.0675237,37.7070257 C82.3439865,36.8450429 83.4110297,35.3415844 84.2686531,33.1966503 L91,16.4180538 L84.5977412,16.4180538 Z M58.6596179,12.0229436 L62.5139373,33.9959891 L69.1729845,32.8157742 L65.3186651,10.8427287 L58.6596179,12.0229436 Z M49.6545717,21.4095359 C50.9110898,21.4095359 51.8584645,22.131196 52.4966959,23.5745161 L57.7321879,20.9885676 C57.1936802,19.465063 56.2163883,18.2723193 54.8003124,17.4103364 C53.3842365,16.5483536 51.6789619,16.1173621 49.6844888,16.1173621 C47.8296287,16.1173621 46.1692298,16.4781922 44.7032921,17.1998522 C43.2373543,17.9215123 42.0905323,18.9288295 41.2628259,20.2218037 C40.4351195,21.514778 40.0212664,22.9831558 40.0212664,24.6269371 C40.0212664,26.2707183 40.4351195,27.7441076 41.2628259,29.0471049 C42.0905323,30.3501023 43.2373543,31.362431 44.7032921,32.0840911 C46.1692298,32.8057511 47.8296287,33.1665811 49.6844888,33.1665811 C51.6789619,33.1665811 53.3842365,32.7355897 54.8003124,31.8736069 C56.2163883,31.011624 57.1936802,29.8188803 57.7321879,28.2953757 L52.4966959,25.7094272 C51.8584645,27.1527473 50.9110898,27.8744073 49.6545717,27.8744073 C48.8567824,27.8744073 48.1936201,27.5937618 47.6650847,27.0324706 C47.1365493,26.4711794 46.8722816,25.6693349 46.8722816,24.6269371 C46.8722816,23.6045853 47.1365493,22.8127638 47.6650847,22.2514727 C48.1936201,21.6901815 48.8567824,21.4095359 49.6545717,21.4095359 L49.6545717,21.4095359 Z M28.2239577,32.8157742 L34.8830049,33.9959891 L37.7226361,17.7962241 L31.0635889,16.618515 L28.2239577,32.8157742 Z M8,17.3201289 L14.1330049,17.3201289 L14.1330049,32.8658895 L21.1934399,32.8658895 L21.1934399,17.3201289 L27.3264448,17.3201289 L27.3264448,11.8174709 L8,11.8174709 L8,17.3201289 Z M38.5727802,10.5270024 C39.19356,11.2687086 39.4154452,12.1231741 39.248408,13.0903991 C39.0664124,14.1177624 38.5553286,14.897055 37.7126637,15.428277 C36.8699988,15.9620048 35.840352,16.1198679 34.6237234,15.9043722 C33.4245464,15.6913822 32.5145681,15.2002525 31.8888021,14.4284771 C31.2655293,13.654196 31.041151,12.7771786 31.2131743,11.7874017 C31.3876907,10.8001307 31.8987745,10.0509072 32.7464256,9.5422371 C33.5965697,9.03106122 34.6187372,8.88071538 35.8179142,9.09370532 C37.0345428,9.30920104 37.9544936,9.78780198 38.5727802,10.5270024 L38.5727802,10.5270024 Z" id="logo" fill="#00A881"></path>
        </g>
    </g>
</svg>