<?xml version="1.0" encoding="UTF-8"?>
<svg width="87px" height="44px" viewBox="0 0 87 44" version="1.1" xmlns="http://www.w3.org/2000/svg" xmlns:xlink="http://www.w3.org/1999/xlink">
    <title>logo_gray</title>
    <g id="Page-1" stroke="none" stroke-width="1" fill="none" fill-rule="evenodd">
        <g id="logo_gray" fill="#B6B8C2">
            <path d="M71.278193,16.9344431 L68.52582,23.9826564 L65.8213144,16.9344431 L60.2687012,16.9344431 L65.7734471,30.2610989 C65.4702872,30.6139105 65.0235252,30.7903163 64.4331611,30.7903163 C64.1140454,30.7903163 63.7829629,30.7261687 63.4399135,30.5978736 C63.0968641,30.4695785 62.7897152,30.3011911 62.5184669,30.0927116 L60.7234411,33.8212886 C61.1542473,34.1741001 61.7406224,34.458755 62.4825664,34.675253 C63.2245104,34.891751 63.9624655,35 64.6964316,35 C66.1803196,35 67.4328487,34.6552069 68.454019,33.9656206 C69.4751892,33.2760343 70.3288237,32.0732675 71.0149225,30.3573203 L76.4,16.9344431 L71.278193,16.9344431 Z M50.5276943,13.4183549 L53.6111498,30.9967913 L58.9383876,30.0526193 L55.8549321,12.4741829 L50.5276943,13.4183549 Z M43.3236573,20.9276287 C44.3288718,20.9276287 45.0867716,21.5049568 45.5973567,22.6596129 L49.7857503,20.5908541 C49.3549441,19.3720504 48.5731107,18.4178554 47.4402499,17.7282691 C46.3073892,17.0386828 44.9431695,16.6938897 43.347591,16.6938897 C41.863703,16.6938897 40.5353839,16.9825537 39.3626337,17.5598818 C38.1898835,18.1372098 37.2724258,18.9430636 36.6102607,19.977443 C35.9480956,21.0118224 35.6170131,22.1865246 35.6170131,23.5015496 C35.6170131,24.8165746 35.9480956,25.9952861 36.6102607,27.037684 C37.2724258,28.0800818 38.1898835,28.8899448 39.3626337,29.4672728 C40.5353839,30.0446009 41.863703,30.3332649 43.347591,30.3332649 C44.9431695,30.3332649 46.3073892,29.9884718 47.4402499,29.2988855 C48.5731107,28.6092992 49.3549441,27.6551042 49.7857503,26.4363006 L45.5973567,24.3675417 C45.0867716,25.5221978 44.3288718,26.0995259 43.3236573,26.0995259 C42.6854259,26.0995259 42.1548961,25.8750094 41.7320678,25.4259765 C41.3092395,24.9769436 41.0978253,24.3354679 41.0978253,23.5015496 C41.0978253,22.6836682 41.3092395,22.0502111 41.7320678,21.6011781 C42.1548961,21.1521452 42.6854259,20.9276287 43.3236573,20.9276287 L43.3236573,20.9276287 Z M26.1791662,30.0526193 L31.5064039,30.9967913 L33.7781089,18.0369793 L28.4508711,17.094812 L26.1791662,30.0526193 Z M10,17.6561031 L14.9064039,17.6561031 L14.9064039,30.0927116 L20.5547519,30.0927116 L20.5547519,17.6561031 L25.4611558,17.6561031 L25.4611558,13.2539767 L10,13.2539767 L10,17.6561031 Z M34.4582242,12.2216019 C34.954848,12.8149669 35.1323561,13.4985393 34.9987264,14.2723193 C34.8531299,15.0942099 34.4442629,15.717644 33.770131,16.1426216 C33.095999,16.5696038 32.2722816,16.6958943 31.2989787,16.5234977 C30.3396372,16.3531058 29.6116545,15.960202 29.1110417,15.3427817 C28.6124234,14.7233568 28.4329208,14.0217429 28.5705395,13.2299214 C28.7101526,12.4401045 29.1190196,11.8407258 29.7971405,11.4337897 C30.4772558,11.024849 31.2949898,10.9045723 32.2543314,11.0749643 C33.2276343,11.2473608 33.9635949,11.6302416 34.4582242,12.2216019 L34.4582242,12.2216019 Z" id="logo"></path>
        </g>
    </g>
</svg>