<?xml version="1.0" standalone="no"?>
<!DOCTYPE svg PUBLIC "-//W3C//DTD SVG 20010904//EN"
 "http://www.w3.org/TR/2001/REC-SVG-20010904/DTD/svg10.dtd">
<svg version="1.0" xmlns="http://www.w3.org/2000/svg"
 width="260.000000pt" height="260.000000pt" viewBox="0 0 260.000000 260.000000"
 preserveAspectRatio="xMidYMid meet">
<metadata>
Created by potrace 1.11, written by Peter Selinger 2001-2013
</metadata>
<g transform="translate(0.000000,260.000000) scale(0.100000,-0.100000)"
fill="#000000" stroke="none">
<path d="M360 2586 c-142 -41 -266 -146 -320 -272 -40 -93 -41 -116 -38 -1044
3 -887 3 -895 24 -952 51 -133 159 -241 292 -292 57 -21 60 -21 982 -21 922 0
925 0 982 21 133 51 241 159 292 292 21 57 21 60 21 982 0 922 0 925 -21 982
-51 133 -159 241 -292 292 -57 21 -63 21 -967 23 -712 1 -920 -1 -955 -11z
m1423 -346 c66 -25 112 -71 137 -138 19 -49 20 -78 20 -427 l0 -375 75 0 c137
0 225 -53 265 -158 18 -46 20 -77 20 -260 0 -137 -5 -226 -14 -263 -32 -138
-135 -238 -274 -268 -36 -7 -269 -11 -737 -11 -657 0 -687 1 -737 20 -67 25
-113 71 -138 137 -19 52 -20 79 -20 803 0 724 1 751 20 803 24 65 70 111 136
137 46 18 81 19 621 20 548 0 574 -1 626 -20z"/>
<path d="M577 2062 c-16 -17 -17 -84 -17 -764 0 -709 1 -746 18 -761 17 -15
73 -17 600 -17 l582 0 0 763 c0 727 -1 765 -18 780 -17 15 -72 17 -584 17
-535 0 -566 -1 -581 -18z m975 -310 c31 -31 31 -93 0 -124 l-23 -23 -368 0
c-345 0 -370 1 -389 19 -44 39 -34 116 18 143 19 10 107 13 382 11 356 -3 358
-3 380 -26z m0 -390 c31 -31 31 -93 0 -124 l-23 -23 -368 0 c-345 0 -370 1
-389 19 -44 39 -34 116 18 143 19 10 107 13 382 11 356 -3 358 -3 380 -26z m0
-390 c31 -31 31 -93 0 -124 l-23 -23 -368 0 c-345 0 -370 1 -389 19 -44 39
-34 116 18 143 19 10 107 13 382 11 356 -3 358 -3 380 -26z"/>
<path d="M1940 819 l0 -302 37 6 c44 8 99 50 124 97 17 31 19 59 19 251 0 257
4 249 -108 249 l-72 0 0 -301z"/>
</g>
</svg>
